This DVD features the following 5 episodes that originally aired during the fall of 1982.


1. "S-Shivering S-Smurfs": It's autumn and Tracker Smurf thinks an early blizzard is coming. However, the other smurfs don't believe him, since it's so hot outside. When the snowstorm hits, will Tracker be able to save the day?



2. "Turncoat Smurf": When Papa Smurf goes into a 3-day trance, the other smurfs decide to relax and do nothing. But Brainy Smurf starts keeping tabs on the others, which lead them to suspect that he's up to something. Has Brainy Smurf decided to sell out to Gargamel?



3. "The Smurf Who Couldn't Say No": Pushover Smurf can't say no to the other smurfs' requests, even when they're more than he can handle. However, a plea for help from Scaredy Smurf lands him, and the whole village, in trouble.



4. "The Haunted Castle": Papa, Brainy and Smurfette, along with their pals Johan and Peewit, take refuge in a cursed castle haunted by a lonely ghost. Can Papa and Johan break the curse, and find the castle's true heir?



5."The Black Hellebore": Evil potion maker Cloderick uses the Black Hellebore, a plant with mysterious powers, to hypnotize everyone and take control of the kingdom. Can Johan, Peewit and the smurfs save the kingdom from the villainous plot?






General Info

General:

Complete name : The Smurfs Season2,Vol1 True Blue Friends 2009 DVDRip BigPermLKRGTSTBFLKRG.m4v
Format : MPEG-4
Format profile : Base Media / Version 2
Codec ID : mp42
File size : 1.76 GiB
Duration : 1h 43mn
Overall bit rate : 2 440 Kbps

Video:

ID : 1
Format : AVC
Format/Info : Advanced Video Codec
Format profile : Main@L3.0
Format settings, CABAC : Yes
Format settings, ReFrames : 2 frames
Codec ID : avc1
Codec ID/Info : Advanced Video Coding
Duration : 1h 43mn
Bit rate mode : Variable
Bit rate : 2 353 Kbps
Width : 702 pixels
Height : 480 pixels
Display aspect ratio : 1.300
Frame rate mode : Variable
Frame rate : 29.970 fps
Minimum frame rate : 14.983 fps
Maximum frame rate : 62.155 fps
Resolution : 8 bits
Colorimetry : 4:2:0
Scan type : Progressive
Bits/(Pixel*Frame) : 0.233
Stream size : 1.69 GiB (96%)
Writing library : x264 core 79

Audio:

ID : 2
Format : AAC
Format/Info : Advanced Audio Codec
Format version : Version 4
Format profile : LC
Format settings, SBR : No
Format settings, PS : Yes
Codec ID : 40
Duration : 1h 43mn
Bit rate mode : Variable
Bit rate : 82.7 Kbps
Maximum bit rate : 110 Kbps
Channel(s) : 2 channels
Channel positions : Front: L R
Sampling rate : 48.0 KHz
Stream size : 61.0 MiB (3%)
Language : English


Release Date
March 3, 2009